<?xml version="1.0" encoding="UTF-8"?>
<!DOCTYPE svg PUBLIC "-//W3C//DTD SVG 1.1//EN" "http://www.w3.org/Graphics/SVG/1.1/DTD/svg11.dtd">
<svg xmlns="http://www.w3.org/2000/svg" version="1.1" width="5075px" height="4075px" style="shape-rendering:geometricPrecision; text-rendering:geometricPrecision; image-rendering:optimizeQuality; fill-rule:evenodd; clip-rule:evenodd" xmlns:xlink="http://www.w3.org/1999/xlink">
<g><path style="opacity:0.098" fill="#f7f4f1" d="M 3181.5,737.5 C 2998.44,740.318 2840.11,803.485 2706.5,927C 2599.43,1030.27 2530.76,1155.11 2500.5,1301.5C 2501.6,1289.27 2502.94,1277.11 2504.5,1265C 2504.17,1263.33 2503.83,1261.67 2503.5,1260C 2504.36,1259.31 2505.02,1258.48 2505.5,1257.5C 2505.38,1255.62 2505.38,1253.79 2505.5,1252C 2507.59,1251.05 2507.93,1249.71 2506.5,1248C 2509.12,1247.42 2509.79,1246.09 2508.5,1244C 2511.12,1243.42 2511.79,1242.09 2510.5,1240C 2511.5,1239 2512.5,1238 2513.5,1237C 2511.12,1236.03 2511.46,1235.36 2514.5,1235C 2513.83,1234.67 2513.17,1234.33 2512.5,1234C 2513.5,1233 2514.5,1232 2515.5,1231C 2515.17,1230 2514.83,1229 2514.5,1228C 2516.81,1227.65 2517.14,1226.65 2515.5,1225C 2515.91,1224.05 2516.57,1223.39 2517.5,1223C 2517.17,1222 2516.83,1221 2516.5,1220C 2517.17,1219.67 2517.83,1219.33 2518.5,1219C 2518.56,1215.64 2518.56,1212.64 2518.5,1210C 2519.74,1206.22 2520.91,1202.38 2522,1198.5C 2532.17,1172.5 2543.17,1146.83 2555,1121.5C 2557.33,1119.17 2559.67,1116.83 2562,1114.5C 2566,1099.77 2573,1086.77 2583,1075.5C 2585.46,1065.92 2590.46,1057.92 2598,1051.5C 2600.33,1046.5 2602.67,1041.5 2605,1036.5C 2610.06,1031.37 2614.39,1025.71 2618,1019.5C 2621.47,1016.94 2624.47,1013.94 2627,1010.5C 2628.91,1005.16 2631.08,999.993 2633.5,995C 2633.17,994.667 2632.83,994.333 2632.5,994C 2633.5,993.667 2634.5,993.333 2635.5,993C 2635.17,992.667 2634.83,992.333 2634.5,992C 2635.5,991.667 2636.5,991.333 2637.5,991C 2637.17,990.667 2636.83,990.333 2636.5,990C 2640.64,988.252 2643.98,985.918 2646.5,983C 2646.04,982.586 2645.71,982.086 2645.5,981.5C 2649.73,973.682 2655.73,967.682 2663.5,963.5C 2671.72,954.449 2679.72,945.283 2687.5,936C 2691.24,932.286 2695.57,929.286 2700.5,927C 2705.52,919.477 2712.19,913.81 2720.5,910C 2723.68,904.645 2727.34,899.645 2731.5,895C 2743.29,886.214 2754.79,877.047 2766,867.5C 2766.46,866.256 2765.96,865.423 2764.5,865C 2766.6,864.444 2766.76,863.944 2765,863.5C 2762.76,864.036 2760.93,865.203 2759.5,867C 2761.71,867.957 2761.54,869.124 2759,870.5C 2758.49,869.473 2757.99,868.473 2757.5,867.5C 2758.29,866.206 2759.29,865.039 2760.5,864C 2767.12,860.798 2773.78,857.798 2780.5,855C 2789.62,844.887 2800.62,837.553 2813.5,833C 2815.8,829.703 2818.46,826.703 2821.5,824C 2840.09,813.206 2859.09,803.206 2878.5,794C 2882.55,790.308 2887.21,787.641 2892.5,786C 2897.94,785.093 2903.28,783.76 2908.5,782C 2917.22,774.978 2927.22,770.978 2938.5,770C 2943,767.584 2947.33,764.917 2951.5,762C 2965.69,758.269 2979.69,753.936 2993.5,749C 3002.78,746.745 3012.11,744.745 3021.5,743C 3030.85,739.99 3040.18,736.99 3049.5,734C 3072.57,733.525 3095.57,732.192 3118.5,730C 3122.79,727.769 3127.29,726.269 3132,725.5C 3136.71,726.269 3141.21,727.769 3145.5,730C 3158.51,727.968 3170.51,730.468 3181.5,737.5 Z"/></g>
<g><path style="opacity:0.99" fill="#f7af0d" d="M 3181.5,737.5 C 3182.71,737.932 3183.71,738.599 3184.5,739.5C 3184.5,1190.5 3184.5,1641.5 3184.5,2092.5C 2952.5,2092.5 2720.5,2092.5 2488.5,2092.5C 2488.5,1906.5 2488.5,1720.5 2488.5,1534.5C 2488.33,1491.17 2488.5,1447.83 2489,1404.5C 2490.6,1369.9 2494.44,1335.56 2500.5,1301.5C 2530.76,1155.11 2599.43,1030.27 2706.5,927C 2840.11,803.485 2998.44,740.318 3181.5,737.5 Z"/></g>
<g><path style="opacity:0.25" fill="#f8f7f5" d="M 3184.5,739.5 C 3188.52,742.852 3191.02,747.185 3192,752.5C 3192.59,762.894 3194.42,773.06 3197.5,783C 3193.24,793.845 3192.24,805.011 3194.5,816.5C 3193.88,841.169 3193.22,865.836 3192.5,890.5C 3195.1,969.178 3195.1,1047.84 3192.5,1126.5C 3192.29,1139.23 3192.95,1151.9 3194.5,1164.5C 3193.82,1168.14 3193.32,1171.8 3193,1175.5C 3192.33,1210.83 3192.33,1246.17 3193,1281.5C 3193.32,1285.2 3193.82,1288.86 3194.5,1292.5C 3192.71,1306.43 3192.04,1320.43 3192.5,1334.5C 3191.18,1551.5 3191.18,1768.67 3192.5,1986C 3192.22,2018.55 3191.05,2051.05 3189,2083.5C 3188,2086.84 3186.5,2089.84 3184.5,2092.5C 3184.5,1641.5 3184.5,1190.5 3184.5,739.5 Z"/></g>
<g><path style="opacity:0.141" fill="#f9f7f6" d="M 2500.5,1301.5 C 2494.44,1335.56 2490.6,1369.9 2489,1404.5C 2488.5,1447.83 2488.33,1491.17 2488.5,1534.5C 2486.72,1522.89 2485.72,1511.05 2485.5,1499C 2485.34,1469.09 2485.67,1441.09 2486.5,1415C 2485.68,1407.25 2485.18,1399.41 2485,1391.5C 2484.02,1415.66 2483.52,1439.82 2483.5,1464C 2484.32,1512.68 2484.66,1561.35 2484.5,1610C 2484.33,1613.5 2484.17,1617 2484,1620.5C 2483.52,1610.67 2483.02,1600.83 2482.5,1591C 2483.43,1535.74 2483.1,1480.24 2481.5,1424.5C 2483.03,1391.54 2484.53,1358.54 2486,1325.5C 2488.56,1317.38 2491.4,1309.38 2494.5,1301.5C 2493.41,1297.89 2493.24,1294.23 2494,1290.5C 2496.44,1285.07 2498.11,1279.4 2499,1273.5C 2499.13,1264.39 2500.13,1255.39 2502,1246.5C 2505.67,1237.17 2509.33,1227.83 2513,1218.5C 2514.91,1206.54 2517.91,1194.87 2522,1183.5C 2527.32,1170.21 2532.65,1156.88 2538,1143.5C 2539.58,1139.33 2541.92,1135.66 2545,1132.5C 2546.41,1130.35 2547.24,1128.02 2547.5,1125.5C 2548.52,1119.8 2551.35,1115.14 2556,1111.5C 2559.11,1101.95 2562.77,1092.62 2567,1083.5C 2574.71,1077.75 2579.04,1070.08 2580,1060.5C 2583.72,1056.29 2587.72,1052.29 2592,1048.5C 2594.2,1043.58 2596.2,1038.58 2598,1033.5C 2604.52,1028.32 2609.52,1021.98 2613,1014.5C 2616.3,1012.2 2619.3,1009.54 2622,1006.5C 2624.67,1000.5 2627.33,994.5 2630,988.5C 2633.37,984.797 2637.03,981.464 2641,978.5C 2643.83,970.333 2649.33,964.833 2657.5,962C 2661.63,956.866 2666.13,952.032 2671,947.5C 2672.87,942.919 2675.37,938.752 2678.5,935C 2684.22,930.279 2690.22,925.946 2696.5,922C 2700.99,915.176 2706.99,910.176 2714.5,907C 2718.17,902 2721.83,897 2725.5,892C 2728.83,890 2732.17,888 2735.5,886C 2742.41,879.246 2749.75,873.08 2757.5,867.5C 2757.99,868.473 2758.49,869.473 2759,870.5C 2761.54,869.124 2761.71,867.957 2759.5,867C 2760.93,865.203 2762.76,864.036 2765,863.5C 2766.76,863.944 2766.6,864.444 2764.5,865C 2765.96,865.423 2766.46,866.256 2766,867.5C 2754.79,877.047 2743.29,886.214 2731.5,895C 2727.34,899.645 2723.68,904.645 2720.5,910C 2712.19,913.81 2705.52,919.477 2700.5,927C 2695.57,929.286 2691.24,932.286 2687.5,936C 2679.72,945.283 2671.72,954.449 2663.5,963.5C 2655.73,967.682 2649.73,973.682 2645.5,981.5C 2645.71,982.086 2646.04,982.586 2646.5,983C 2643.98,985.918 2640.64,988.252 2636.5,990C 2636.83,990.333 2637.17,990.667 2637.5,991C 2636.5,991.333 2635.5,991.667 2634.5,992C 2634.83,992.333 2635.17,992.667 2635.5,993C 2634.5,993.333 2633.5,993.667 2632.5,994C 2632.83,994.333 2633.17,994.667 2633.5,995C 2631.08,999.993 2628.91,1005.16 2627,1010.5C 2624.47,1013.94 2621.47,1016.94 2618,1019.5C 2614.39,1025.71 2610.06,1031.37 2605,1036.5C 2602.67,1041.5 2600.33,1046.5 2598,1051.5C 2590.46,1057.92 2585.46,1065.92 2583,1075.5C 2573,1086.77 2566,1099.77 2562,1114.5C 2559.67,1116.83 2557.33,1119.17 2555,1121.5C 2543.17,1146.83 2532.17,1172.5 2522,1198.5C 2520.91,1202.38 2519.74,1206.22 2518.5,1210C 2518.56,1212.64 2518.56,1215.64 2518.5,1219C 2517.83,1219.33 2517.17,1219.67 2516.5,1220C 2516.83,1221 2517.17,1222 2517.5,1223C 2516.57,1223.39 2515.91,1224.05 2515.5,1225C 2517.14,1226.65 2516.81,1227.65 2514.5,1228C 2514.83,1229 2515.17,1230 2515.5,1231C 2514.5,1232 2513.5,1233 2512.5,1234C 2513.17,1234.33 2513.83,1234.67 2514.5,1235C 2511.46,1235.36 2511.12,1236.03 2513.5,1237C 2512.5,1238 2511.5,1239 2510.5,1240C 2511.79,1242.09 2511.12,1243.42 2508.5,1244C 2509.79,1246.09 2509.12,1247.42 2506.5,1248C 2507.93,1249.71 2507.59,1251.05 2505.5,1252C 2505.38,1253.79 2505.38,1255.62 2505.5,1257.5C 2505.02,1258.48 2504.36,1259.31 2503.5,1260C 2503.83,1261.67 2504.17,1263.33 2504.5,1265C 2502.94,1277.11 2501.6,1289.27 2500.5,1301.5 Z"/></g>
<g><path style="opacity:0.263" fill="#fcfcfb" d="M 2547.5,1125.5 C 2547.24,1128.02 2546.41,1130.35 2545,1132.5C 2541.92,1135.66 2539.58,1139.33 2538,1143.5C 2532.65,1156.88 2527.32,1170.21 2522,1183.5C 2517.91,1194.87 2514.91,1206.54 2513,1218.5C 2509.33,1227.83 2505.67,1237.17 2502,1246.5C 2500.13,1255.39 2499.13,1264.39 2499,1273.5C 2498.11,1279.4 2496.44,1285.07 2494,1290.5C 2493.24,1294.23 2493.41,1297.89 2494.5,1301.5C 2491.4,1309.38 2488.56,1317.38 2486,1325.5C 2484.53,1358.54 2483.03,1391.54 2481.5,1424.5C 2483.1,1480.24 2483.43,1535.74 2482.5,1591C 2483.02,1600.83 2483.52,1610.67 2484,1620.5C 2484.17,1617 2484.33,1613.5 2484.5,1610C 2484.66,1561.35 2484.32,1512.68 2483.5,1464C 2483.52,1439.82 2484.02,1415.66 2485,1391.5C 2485.18,1399.41 2485.68,1407.25 2486.5,1415C 2485.67,1441.09 2485.34,1469.09 2485.5,1499C 2485.72,1511.05 2486.72,1522.89 2488.5,1534.5C 2488.5,1720.5 2488.5,1906.5 2488.5,2092.5C 2289.83,2092.5 2091.17,2092.5 1892.5,2092.5C 1894.55,2089.63 1897.21,2087.47 1900.5,2086C 1907.68,2083.7 1915.02,2082.03 1922.5,2081C 1927.17,2079 1931.83,2077 1936.5,2075C 1939.66,2074.45 1942.82,2073.95 1946,2073.5C 1953.48,2074.21 1960.98,2074.71 1968.5,2075C 2007.83,2075.33 2047.17,2075.67 2086.5,2076C 2090.51,2077.34 2094.51,2078.67 2098.5,2080C 2152.83,2080.67 2207.17,2080.67 2261.5,2080C 2265.51,2078.66 2269.51,2077.33 2273.5,2076C 2296.17,2075.33 2318.83,2075.33 2341.5,2076C 2345.24,2077.14 2348.91,2078.47 2352.5,2080C 2376.84,2080.74 2401.17,2080.57 2425.5,2079.5C 2432.07,2079.62 2438.57,2080.29 2445,2081.5C 2447.25,2080.86 2449.41,2080.03 2451.5,2079C 2458.04,2072.79 2464.87,2066.96 2472,2061.5C 2473,2059.83 2474,2058.17 2475,2056.5C 2475.41,2048.15 2475.41,2039.81 2475,2031.5C 2476.11,2027.28 2477.78,2023.28 2480,2019.5C 2480.33,1933.17 2480.67,1846.83 2481,1760.5C 2482.91,1752.8 2482.75,1745.14 2480.5,1737.5C 2481.86,1731.24 2482.53,1724.91 2482.5,1718.5C 2479.83,1697.5 2479.83,1676.5 2482.5,1655.5C 2480.07,1640.32 2480.07,1625.15 2482.5,1610C 2481.18,1603.74 2480.51,1597.4 2480.5,1591C 2481.99,1576.22 2482.65,1561.38 2482.5,1546.5C 2479.41,1472.12 2480.24,1397.79 2485,1323.5C 2486.2,1317.23 2488.2,1311.23 2491,1305.5C 2491.33,1300.17 2491.67,1294.83 2492,1289.5C 2497.67,1277.84 2500,1265.5 2499,1252.5C 2501.95,1239.99 2506.28,1227.99 2512,1216.5C 2513.41,1208.78 2515.08,1201.11 2517,1193.5C 2523.27,1176.01 2529.94,1158.68 2537,1141.5C 2540.36,1135.99 2543.86,1130.66 2547.5,1125.5 Z"/></g>
<g><path style="opacity:0.042" fill="#fffefd" d="M 3192.5,1334.5 C 3192.33,1546.5 3192.5,1758.5 3193,1970.5C 3193.32,1975.85 3193.82,1981.19 3194.5,1986.5C 3193.25,2020.21 3191.75,2053.87 3190,2087.5C 3187.08,2093.68 3183.41,2099.34 3179,2104.5C 3178,2107.17 3177,2109.83 3176,2112.5C 3172.03,2116.32 3167.7,2119.65 3163,2122.5C 3162.61,2128.29 3159.94,2132.62 3155,2135.5C 3152.94,2139.96 3150.6,2144.29 3148,2148.5C 3142.49,2151.92 3137.16,2155.59 3132,2159.5C 3125.74,2170.6 3117.24,2179.6 3106.5,2186.5C 3104.62,2190.96 3102.45,2195.3 3100,2199.5C 3093.82,2203.93 3087.82,2208.59 3082,2213.5C 3079.86,2219.62 3076.36,2224.79 3071.5,2229C 3057.12,2240.38 3042.45,2251.38 3027.5,2262C 3025.71,2268.58 3022.38,2274.25 3017.5,2279C 3003.97,2289.36 2990.31,2299.53 2976.5,2309.5C 2973.48,2313.37 2971.32,2317.7 2970,2322.5C 2963.06,2328.77 2955.56,2334.27 2947.5,2339C 2941.74,2346.52 2935.74,2353.85 2929.5,2361C 2923.68,2365.74 2917.68,2370.24 2911.5,2374.5C 2905.03,2386.81 2895.69,2396.31 2883.5,2403C 2879.53,2409.49 2873.86,2413.82 2866.5,2416C 2862.54,2421.41 2858.71,2426.91 2855,2432.5C 2847.58,2439.92 2839.58,2446.59 2831,2452.5C 2824.5,2464.33 2815.33,2473.5 2803.5,2480C 2798.26,2487.91 2792.26,2495.25 2785.5,2502C 2776.22,2510.64 2766.22,2518.3 2755.5,2525C 2751.56,2528.95 2748.39,2533.45 2746,2538.5C 2741.5,2543 2737,2547.5 2732.5,2552C 2728.64,2553.18 2725.14,2555.01 2722,2557.5C 2715.94,2570.89 2706.44,2581.06 2693.5,2588C 2688.57,2592.93 2684.4,2598.43 2681,2604.5C 2675.98,2610.86 2669.81,2615.69 2662.5,2619C 2656.9,2624.59 2652.07,2630.76 2648,2637.5C 2639.52,2645.07 2630.85,2652.4 2622,2659.5C 2619.47,2664.73 2616.3,2669.56 2612.5,2674C 2606.75,2677.96 2600.92,2681.79 2595,2685.5C 2592.08,2689.67 2589.42,2694 2587,2698.5C 2577.71,2707.31 2568.04,2715.64 2558,2723.5C 2555.87,2729.58 2552.37,2734.75 2547.5,2739C 2541.33,2740.5 2535.33,2742.5 2529.5,2745C 2522.17,2751.33 2514.83,2757.67 2507.5,2764C 2502.84,2766.58 2497.84,2767.75 2492.5,2767.5C 2492.83,2766.5 2493.5,2765.83 2494.5,2765.5C 2498.77,2765.27 2502.77,2764.1 2506.5,2762C 2514.25,2754.25 2522.58,2747.25 2531.5,2741C 2536.5,2739.33 2541.5,2737.67 2546.5,2736C 2548.33,2734.17 2550.17,2732.33 2552,2730.5C 2552.44,2727.62 2553.44,2724.96 2555,2722.5C 2566.23,2713.87 2576.9,2704.54 2587,2694.5C 2590.53,2685.64 2596.69,2679.47 2605.5,2676C 2611.76,2672.2 2615.59,2667.04 2617,2660.5C 2623.94,2653.55 2631.44,2647.38 2639.5,2642C 2646.63,2635.92 2652.46,2628.75 2657,2620.5C 2660.74,2616.92 2664.91,2613.92 2669.5,2611.5C 2672.83,2607.34 2676.66,2603.68 2681,2600.5C 2683.36,2595.47 2686.53,2590.97 2690.5,2587C 2697.29,2582.21 2703.79,2577.05 2710,2571.5C 2713.8,2565.4 2717.97,2559.57 2722.5,2554C 2735.69,2546.31 2746.02,2535.81 2753.5,2522.5C 2761.03,2517.73 2767.86,2512.73 2774,2507.5C 2784.42,2500.41 2792.75,2491.41 2799,2480.5C 2803.27,2476.16 2808.1,2472.66 2813.5,2470C 2817.03,2466.47 2820.53,2462.97 2824,2459.5C 2826.7,2455.63 2829.2,2451.63 2831.5,2447.5C 2838.15,2442.68 2844.65,2437.68 2851,2432.5C 2855.29,2426.75 2859.46,2420.92 2863.5,2415C 2866.93,2412.57 2870.59,2410.57 2874.5,2409C 2878.73,2402.38 2884.4,2397.38 2891.5,2394C 2896,2389.5 2900.5,2385 2905,2380.5C 2906.17,2378.17 2907.33,2375.83 2908.5,2373.5C 2914.56,2368.1 2920.9,2363.1 2927.5,2358.5C 2933.76,2351.45 2939.76,2344.11 2945.5,2336.5C 2953.28,2331.55 2960.61,2326.05 2967.5,2320C 2969.81,2314.08 2973.48,2308.58 2978.5,2303.5C 2990.31,2294.43 3002.31,2285.59 3014.5,2277C 3018.5,2271.04 3022.5,2265.04 3026.5,2259C 3034.55,2252.61 3042.89,2246.61 3051.5,2241C 3057.01,2234.15 3063.68,2228.81 3071.5,2225C 3074.89,2220.5 3077.72,2215.67 3080,2210.5C 3086.18,2206.07 3092.18,2201.41 3098,2196.5C 3099.64,2193.28 3100.97,2189.95 3102,2186.5C 3109.61,2181.06 3116.77,2175.06 3123.5,2168.5C 3126.8,2163.4 3130.47,2158.56 3134.5,2154C 3142.71,2150.46 3148.04,2144.46 3150.5,2136C 3155.19,2131.45 3159.02,2126.28 3162,2120.5C 3166,2117.83 3170,2115.17 3174,2112.5C 3176.4,2106.03 3179.57,2100.03 3183.5,2094.5C 3183.83,2093.83 3184.17,2093.17 3184.5,2092.5C 3186.5,2089.84 3188,2086.84 3189,2083.5C 3191.05,2051.05 3192.22,2018.55 3192.5,1986C 3191.18,1768.67 3191.18,1551.5 3192.5,1334.5 Z"/></g>
<g><path style="opacity:0.999" fill="#ec713f" d="M 2488.5,2092.5 C 2720.5,2092.5 2952.5,2092.5 3184.5,2092.5C 3184.17,2093.17 3183.83,2093.83 3183.5,2094.5C 3183.17,2094.5 3182.83,2094.5 3182.5,2094.5C 2951.67,2093.5 2720.67,2093.17 2489.5,2093.5C 2489.5,2318.17 2489.5,2542.83 2489.5,2767.5C 2489.17,2767.5 2488.83,2767.5 2488.5,2767.5C 2488.5,2542.5 2488.5,2317.5 2488.5,2092.5 Z"/></g>
<g><path style="opacity:0.981" fill="#be3723" d="M 1892.5,2092.5 C 2091.17,2092.5 2289.83,2092.5 2488.5,2092.5C 2488.5,2317.5 2488.5,2542.5 2488.5,2767.5C 2487.5,2767.5 2486.5,2767.5 2485.5,2767.5C 2288.84,2544.18 2091.84,2321.18 1894.5,2098.5C 1893.83,2097.17 1892.83,2096.17 1891.5,2095.5C 1891.56,2094.39 1891.89,2093.39 1892.5,2092.5 Z"/></g>
<g><path style="opacity:0.985" fill="#eb591e" d="M 3182.5,2094.5 C 2953.14,2318.19 2723.81,2541.86 2494.5,2765.5C 2493.5,2765.83 2492.83,2766.5 2492.5,2767.5C 2491.5,2767.5 2490.5,2767.5 2489.5,2767.5C 2489.5,2542.83 2489.5,2318.17 2489.5,2093.5C 2720.67,2093.17 2951.67,2093.5 3182.5,2094.5 Z"/></g>
<g><path style="opacity:0.04" fill="#fefefd" d="M 1891.5,2095.5 C 1892.83,2096.17 1893.83,2097.17 1894.5,2098.5C 1894.49,2106 1896.33,2113.34 1900,2120.5C 1908.98,2130.42 1917.98,2140.42 1927,2150.5C 1928.27,2153.43 1929.94,2156.1 1932,2158.5C 1940.63,2164.91 1948.8,2171.91 1956.5,2179.5C 1958.33,2183.17 1960.17,2186.83 1962,2190.5C 1964.69,2192.69 1967.53,2194.69 1970.5,2196.5C 1973.67,2200.17 1976.33,2204.17 1978.5,2208.5C 1982.58,2211.95 1986.74,2215.29 1991,2218.5C 1993.25,2222.01 1995.25,2225.67 1997,2229.5C 2003.13,2234.62 2008.13,2240.62 2012,2247.5C 2015.81,2251.4 2019.81,2255.07 2024,2258.5C 2027.67,2264.83 2032.67,2269.83 2039,2273.5C 2040.61,2278.33 2042.61,2283 2045,2287.5C 2052.92,2293.09 2060.26,2299.42 2067,2306.5C 2073.97,2315.14 2080.97,2323.81 2088,2332.5C 2092.03,2336.87 2096.37,2340.87 2101,2344.5C 2105.23,2351.8 2110.89,2357.8 2118,2362.5C 2119.47,2366.58 2121.14,2370.58 2123,2374.5C 2131.57,2381.13 2139.57,2388.47 2147,2396.5C 2154.67,2405.83 2162.33,2415.17 2170,2424.5C 2177.85,2429.84 2183.68,2436.84 2187.5,2445.5C 2193.15,2451.47 2198.31,2457.8 2203,2464.5C 2210.96,2470.79 2218.63,2477.46 2226,2484.5C 2228.31,2487.91 2230.14,2491.58 2231.5,2495.5C 2235.06,2498.86 2238.89,2501.86 2243,2504.5C 2244.33,2507.17 2245.67,2509.83 2247,2512.5C 2256.56,2522.6 2265.89,2532.94 2275,2543.5C 2279.91,2551.75 2286.24,2558.75 2294,2564.5C 2297.33,2570.5 2302,2575.17 2308,2578.5C 2310.58,2585.24 2315.08,2590.24 2321.5,2593.5C 2322.83,2596.83 2324.66,2599.83 2327,2602.5C 2345.16,2622.32 2362.16,2642.98 2378,2664.5C 2384.06,2668.63 2388.73,2673.96 2392,2680.5C 2396.33,2684.5 2400.67,2688.5 2405,2692.5C 2406.4,2695.9 2408.57,2698.74 2411.5,2701C 2415.34,2702.35 2418.01,2704.85 2419.5,2708.5C 2416.54,2705.05 2412.87,2702.55 2408.5,2701C 2405.05,2693.89 2399.89,2688.39 2393,2684.5C 2390.75,2681.67 2388.75,2678.67 2387,2675.5C 2377.77,2666.02 2368.77,2656.36 2360,2646.5C 2356.61,2642.1 2353.61,2637.44 2351,2632.5C 2343,2623.83 2335,2615.17 2327,2606.5C 2324.25,2602.67 2321.75,2598.67 2319.5,2594.5C 2313.32,2591.16 2309.16,2586.16 2307,2579.5C 2304.44,2577.27 2301.6,2575.44 2298.5,2574C 2295.94,2571.11 2293.78,2567.94 2292,2564.5C 2283.95,2559.45 2277.62,2552.78 2273,2544.5C 2266.9,2540.4 2262.23,2535.07 2259,2528.5C 2251.09,2522.27 2245.09,2514.6 2241,2505.5C 2237.84,2502.92 2234.51,2500.59 2231,2498.5C 2226.36,2486.86 2218.53,2478.03 2207.5,2472C 2201.02,2464.22 2194.18,2456.72 2187,2449.5C 2185.06,2445.95 2183.39,2442.29 2182,2438.5C 2177.14,2434.4 2172.48,2430.07 2168,2425.5C 2158.62,2415.13 2149.62,2404.46 2141,2393.5C 2135.55,2387.79 2129.55,2382.79 2123,2378.5C 2120.09,2373.44 2117.76,2368.1 2116,2362.5C 2109.33,2359.83 2104.67,2355.17 2102,2348.5C 2097.03,2344.53 2092.37,2340.2 2088,2335.5C 2078.62,2325.13 2069.62,2314.46 2061,2303.5C 2055.29,2298.12 2049.29,2293.12 2043,2288.5C 2040.85,2283.55 2038.85,2278.55 2037,2273.5C 2030.33,2270.83 2025.67,2266.17 2023,2259.5C 2014.95,2254.45 2008.62,2247.78 2004,2239.5C 1997.72,2234.96 1993.39,2228.96 1991,2221.5C 1986.51,2217.59 1981.85,2213.93 1977,2210.5C 1974.75,2206.99 1972.75,2203.33 1971,2199.5C 1967.84,2196.92 1964.51,2194.59 1961,2192.5C 1955.3,2180.8 1946.8,2171.63 1935.5,2165C 1933.33,2162.83 1931.17,2160.67 1929,2158.5C 1922.33,2149.83 1915.67,2141.17 1909,2132.5C 1906,2130.17 1903,2127.83 1900,2125.5C 1894.62,2116.2 1891.79,2106.2 1891.5,2095.5 Z"/></g>
<g><path style="opacity:0.222" fill="#faf7f6" d="M 3182.5,2094.5 C 3182.83,2094.5 3183.17,2094.5 3183.5,2094.5C 3179.57,2100.03 3176.4,2106.03 3174,2112.5C 3170,2115.17 3166,2117.83 3162,2120.5C 3159.02,2126.28 3155.19,2131.45 3150.5,2136C 3148.04,2144.46 3142.71,2150.46 3134.5,2154C 3130.47,2158.56 3126.8,2163.4 3123.5,2168.5C 3116.77,2175.06 3109.61,2181.06 3102,2186.5C 3100.97,2189.95 3099.64,2193.28 3098,2196.5C 3092.18,2201.41 3086.18,2206.07 3080,2210.5C 3077.72,2215.67 3074.89,2220.5 3071.5,2225C 3063.68,2228.81 3057.01,2234.15 3051.5,2241C 3042.89,2246.61 3034.55,2252.61 3026.5,2259C 3022.5,2265.04 3018.5,2271.04 3014.5,2277C 3002.31,2285.59 2990.31,2294.43 2978.5,2303.5C 2973.48,2308.58 2969.81,2314.08 2967.5,2320C 2960.61,2326.05 2953.28,2331.55 2945.5,2336.5C 2939.76,2344.11 2933.76,2351.45 2927.5,2358.5C 2920.9,2363.1 2914.56,2368.1 2908.5,2373.5C 2907.33,2375.83 2906.17,2378.17 2905,2380.5C 2900.5,2385 2896,2389.5 2891.5,2394C 2884.4,2397.38 2878.73,2402.38 2874.5,2409C 2870.59,2410.57 2866.93,2412.57 2863.5,2415C 2859.46,2420.92 2855.29,2426.75 2851,2432.5C 2844.65,2437.68 2838.15,2442.68 2831.5,2447.5C 2829.2,2451.63 2826.7,2455.63 2824,2459.5C 2820.53,2462.97 2817.03,2466.47 2813.5,2470C 2808.1,2472.66 2803.27,2476.16 2799,2480.5C 2792.75,2491.41 2784.42,2500.41 2774,2507.5C 2767.86,2512.73 2761.03,2517.73 2753.5,2522.5C 2746.02,2535.81 2735.69,2546.31 2722.5,2554C 2717.97,2559.57 2713.8,2565.4 2710,2571.5C 2703.79,2577.05 2697.29,2582.21 2690.5,2587C 2686.53,2590.97 2683.36,2595.47 2681,2600.5C 2676.66,2603.68 2672.83,2607.34 2669.5,2611.5C 2664.91,2613.92 2660.74,2616.92 2657,2620.5C 2652.46,2628.75 2646.63,2635.92 2639.5,2642C 2631.44,2647.38 2623.94,2653.55 2617,2660.5C 2615.59,2667.04 2611.76,2672.2 2605.5,2676C 2596.69,2679.47 2590.53,2685.64 2587,2694.5C 2576.9,2704.54 2566.23,2713.87 2555,2722.5C 2553.44,2724.96 2552.44,2727.62 2552,2730.5C 2550.17,2732.33 2548.33,2734.17 2546.5,2736C 2541.5,2737.67 2536.5,2739.33 2531.5,2741C 2522.58,2747.25 2514.25,2754.25 2506.5,2762C 2502.77,2764.1 2498.77,2765.27 2494.5,2765.5C 2723.81,2541.86 2953.14,2318.19 3182.5,2094.5 Z"/></g>
<g><path style="opacity:0.216" fill="#faf7f6" d="M 1894.5,2098.5 C 2091.84,2321.18 2288.84,2544.18 2485.5,2767.5C 2477.4,2767.86 2471.06,2764.69 2466.5,2758C 2462.83,2756.33 2459.17,2754.67 2455.5,2753C 2450.04,2745.54 2443.88,2738.71 2437,2732.5C 2435,2729.17 2433,2725.83 2431,2722.5C 2428,2720.17 2425,2717.83 2422,2715.5C 2420.59,2713.35 2419.76,2711.02 2419.5,2708.5C 2418.01,2704.85 2415.34,2702.35 2411.5,2701C 2408.57,2698.74 2406.4,2695.9 2405,2692.5C 2400.67,2688.5 2396.33,2684.5 2392,2680.5C 2388.73,2673.96 2384.06,2668.63 2378,2664.5C 2362.16,2642.98 2345.16,2622.32 2327,2602.5C 2324.66,2599.83 2322.83,2596.83 2321.5,2593.5C 2315.08,2590.24 2310.58,2585.24 2308,2578.5C 2302,2575.17 2297.33,2570.5 2294,2564.5C 2286.24,2558.75 2279.91,2551.75 2275,2543.5C 2265.89,2532.94 2256.56,2522.6 2247,2512.5C 2245.67,2509.83 2244.33,2507.17 2243,2504.5C 2238.89,2501.86 2235.06,2498.86 2231.5,2495.5C 2230.14,2491.58 2228.31,2487.91 2226,2484.5C 2218.63,2477.46 2210.96,2470.79 2203,2464.5C 2198.31,2457.8 2193.15,2451.47 2187.5,2445.5C 2183.68,2436.84 2177.85,2429.84 2170,2424.5C 2162.33,2415.17 2154.67,2405.83 2147,2396.5C 2139.57,2388.47 2131.57,2381.13 2123,2374.5C 2121.14,2370.58 2119.47,2366.58 2118,2362.5C 2110.89,2357.8 2105.23,2351.8 2101,2344.5C 2096.37,2340.87 2092.03,2336.87 2088,2332.5C 2080.97,2323.81 2073.97,2315.14 2067,2306.5C 2060.26,2299.42 2052.92,2293.09 2045,2287.5C 2042.61,2283 2040.61,2278.33 2039,2273.5C 2032.67,2269.83 2027.67,2264.83 2024,2258.5C 2019.81,2255.07 2015.81,2251.4 2012,2247.5C 2008.13,2240.62 2003.13,2234.62 1997,2229.5C 1995.25,2225.67 1993.25,2222.01 1991,2218.5C 1986.74,2215.29 1982.58,2211.95 1978.5,2208.5C 1976.33,2204.17 1973.67,2200.17 1970.5,2196.5C 1967.53,2194.69 1964.69,2192.69 1962,2190.5C 1960.17,2186.83 1958.33,2183.17 1956.5,2179.5C 1948.8,2171.91 1940.63,2164.91 1932,2158.5C 1929.94,2156.1 1928.27,2153.43 1927,2150.5C 1917.98,2140.42 1908.98,2130.42 1900,2120.5C 1896.33,2113.34 1894.49,2106 1894.5,2098.5 Z"/></g>
</svg>
